<?xml version="1.0" standalone="no"?>
<!DOCTYPE svg PUBLIC "-//W3C//DTD SVG 20010904//EN"
 "http://www.w3.org/TR/2001/REC-SVG-20010904/DTD/svg10.dtd">
<svg version="1.0" xmlns="http://www.w3.org/2000/svg"
 width="16.000000pt" height="16.000000pt" viewBox="0 0 16.000000 16.000000"
 preserveAspectRatio="xMidYMid meet">
<metadata>
Created by potrace 1.11, written by Peter Selinger 2001-2013
</metadata>
<g transform="translate(0.000000,16.000000) scale(0.005000,-0.005000)"
fill="#000000" stroke="none">
<path d="M1918 3114 c-2 -1 -30 -6 -63 -9 -72 -9 -107 -30 -219 -132 -90 -83
-130 -115 -239 -189 -38 -26 -76 -58 -85 -73 -9 -14 -47 -58 -85 -97 -73 -75
-144 -170 -182 -245 -13 -25 -30 -51 -39 -58 -13 -11 -15 -5 -15 49 1 114 -72
217 -145 204 -34 -6 -62 -24 -82 -53 -15 -20 -54 -134 -54 -155 0 -6 13 -39
29 -73 28 -59 29 -65 26 -190 -3 -133 -5 -148 -32 -248 -30 -114 -8 -246 47
-275 34 -18 98 -15 121 6 30 27 100 137 158 248 55 106 158 255 332 482 90
117 122 150 191 200 46 32 112 85 147 117 94 85 140 109 214 112 42 2 70 -2
86 -12 22 -14 23 -19 18 -86 -3 -40 -8 -79 -10 -87 -2 -8 -7 -37 -12 -65 -11
-66 -64 -196 -155 -376 -72 -141 -94 -174 -207 -295 -56 -60 -129 -147 -162
-194 -89 -125 -188 -252 -219 -279 -43 -38 -130 -101 -139 -101 -11 0 -140
-133 -189 -195 -55 -70 -79 -89 -159 -128 -54 -26 -92 -57 -166 -131 -84 -85
-102 -109 -147 -201 -57 -117 -62 -159 -25 -230 56 -107 90 -113 224 -44 31
16 70 29 87 29 19 0 66 22 129 59 76 46 110 61 153 66 63 7 130 23 145 35 10
8 43 6 52 -4 3 -3 19 2 36 11 37 19 144 50 201 59 23 3 47 11 55 17 9 8 68 12
172 12 146 0 159 2 173 20 15 20 15 20 30 -1 13 -18 24 -21 71 -19 36 1 59 -3
66 -12 7 -7 26 -13 44 -13 37 0 116 -32 135 -55 7 -8 18 -15 24 -15 17 0 56
-43 56 -60 0 -10 3 -11 10 -4 8 8 39 -17 103 -80 51 -50 126 -122 166 -161 40
-38 86 -89 103 -112 35 -52 59 -54 86 -10 105 169 79 321 -81 481 -99 100
-157 181 -192 271 -15 39 -37 88 -49 110 -13 22 -34 77 -49 122 l-26 82 33 59
c47 83 54 109 49 185 -5 96 -5 95 -48 164 l-39 62 -69 3 c-37 2 -75 1 -84 -2
-8 -3 -28 -30 -45 -59 -28 -52 -29 -58 -30 -195 l0 -141 41 -109 c23 -60 41
-117 41 -127 0 -24 -30 -25 -71 -3 -21 10 -61 15 -130 16 -85 1 -101 -1 -113
-17 -12 -17 -30 -18 -187 -18 -135 0 -181 -3 -203 -14 -36 -19 -107 -12 -161
14 -43 20 -66 49 -50 61 6 4 49 54 95 112 46 58 111 135 144 171 34 37 76 95
95 130 29 55 100 156 138 197 76 80 232 335 258 421 4 13 22 44 41 68 19 25
36 57 39 71 3 15 12 40 20 55 8 16 15 36 15 45 0 9 9 41 20 71 68 178 92 461
51 597 -12 38 -32 89 -44 114 l-24 45 -121 1 c-67 1 -123 0 -124 -2z"/>
</g>
</svg>
