<?xml version="1.0" standalone="no"?>
<!DOCTYPE svg PUBLIC "-//W3C//DTD SVG 20010904//EN"
 "http://www.w3.org/TR/2001/REC-SVG-20010904/DTD/svg10.dtd">
<svg version="1.0" xmlns="http://www.w3.org/2000/svg"
 width="16.000000pt" height="16.000000pt" viewBox="0 0 16.000000 16.000000"
 preserveAspectRatio="xMidYMid meet">
<metadata>
Created by potrace 1.11, written by Peter Selinger 2001-2013
</metadata>
<g transform="translate(0.000000,16.000000) scale(0.005000,-0.005000)"
fill="#000000" stroke="none">
<path d="M1907 3104 c-1 -1 -24 -5 -52 -8 -127 -17 -122 -14 -225 -120 -41
-43 -91 -87 -110 -99 -19 -11 -41 -29 -48 -39 -7 -10 -39 -36 -71 -58 -32 -21
-75 -61 -95 -87 -20 -26 -63 -79 -97 -118 -33 -38 -79 -101 -101 -140 -67
-115 -88 -146 -97 -141 -4 3 -6 29 -5 58 5 105 -54 208 -118 208 -42 0 -80
-44 -105 -121 -19 -58 -20 -66 -6 -113 8 -27 21 -59 28 -70 10 -15 12 -56 10
-151 -3 -130 -7 -164 -27 -240 -20 -74 -21 -164 -3 -210 20 -55 33 -65 85 -70
38 -4 43 -1 79 45 21 27 67 106 102 177 113 227 396 633 487 699 30 21 94 75
142 120 106 97 144 117 223 117 75 0 89 -13 89 -84 1 -141 -51 -308 -178 -574
-54 -113 -79 -150 -180 -266 -45 -52 -114 -141 -153 -199 -154 -226 -163 -237
-253 -316 -12 -11 -39 -30 -58 -41 -44 -27 -111 -99 -172 -184 -57 -80 -86
-105 -163 -144 -105 -53 -228 -197 -289 -337 -48 -109 -47 -159 3 -237 41 -63
65 -66 160 -17 36 19 80 36 96 38 17 2 55 19 85 39 113 72 133 82 173 87 23 2
65 11 92 19 28 8 66 16 85 18 19 2 67 15 106 28 40 14 92 29 118 32 25 4 50
12 55 19 7 8 54 11 147 11 122 -1 140 1 157 18 20 20 47 16 47 -6 0 -10 14
-13 53 -12 28 1 59 -4 67 -10 8 -7 34 -15 57 -18 42 -5 158 -74 176 -104 4 -7
15 -13 22 -13 8 0 15 -4 15 -9 0 -6 65 -76 144 -156 80 -80 157 -166 173 -190
15 -25 35 -45 44 -45 17 0 59 83 76 150 29 108 -10 223 -112 330 -34 36 -80
91 -103 122 -40 54 -92 155 -92 178 0 6 -13 36 -29 68 -29 59 -74 185 -76 212
0 8 17 51 39 95 38 79 39 81 33 168 -5 78 -10 94 -42 148 l-37 60 -70 -3 -70
-3 -26 -49 c-25 -47 -26 -58 -26 -195 1 -141 2 -149 36 -246 57 -158 53 -172
-32 -134 -59 26 -203 27 -222 1 -12 -16 -31 -17 -173 -17 -129 1 -167 -2 -195
-15 -19 -9 -44 -15 -55 -13 -46 9 -116 36 -130 50 -16 15 -21 78 -6 69 5 -3
48 47 96 112 49 64 105 135 126 157 21 22 57 76 80 120 24 44 73 121 109 170
149 202 237 357 256 449 2 11 12 29 22 40 27 30 47 72 67 141 10 33 24 77 31
97 38 106 63 271 68 453 2 73 -27 192 -64 265 l-18 35 -86 0 c-48 0 -88 0 -89
-1z"/>
</g>
</svg>
